<svg xmlns="http://www.w3.org/2000/svg" viewBox="0 0 1200 630"><rect width="1200" height="630" rx="36" fill="#eef6ff"/><rect x="125" y="105" width="310" height="420" rx="22" fill="#fff" stroke="#cfdced" stroke-width="4"/><path d="M335 105v92h100" fill="#e8effb"/><path d="M335 105v92h100" fill="none" stroke="#cfdced" stroke-width="4"/><rect x="180" y="250" width="200" height="14" rx="7" fill="#a8b7d5"/><rect x="180" y="290" width="155" height="14" rx="7" fill="#c0cadc"/><rect x="180" y="330" width="180" height="14" rx="7" fill="#c0cadc"/><path d="M470 315h150" stroke="#5842f4" stroke-width="18" stroke-linecap="round"/><path d="M580 260l95 55-95 55" fill="none" stroke="#5842f4" stroke-width="18" stroke-linecap="round" stroke-linejoin="round"/><rect x="735" y="205" width="285" height="285" rx="18" fill="#fff" stroke="#d7deed" stroke-width="4"/><path d="M785 255h55v55h-55zM915 255h55v55h-55zM785 385h55v55h-55zM880 350h35v35h-35zM930 385h40v40h-40z" fill="#17213f"/><text x="470" y="545" font-family="Arial,sans-serif" font-size="34" font-weight="700" fill="#17213f">PDF to JPG</text></svg>